# Batman Cowl 3D Tactical Mesh for Alfred / Mark-LIV
v 0.0000 -3.4064 5.9795
v 0.0000 -1.1269 7.4756
v 0.0000 -2.0890 6.0583
v -0.4639 0.9554 6.6336
v 0.0000 -0.4632 7.5866
v 0.0000 0.3657 7.2429
v 0.0000 2.4733 5.7886
v -4.2531 2.5776 3.2797
v 0.0000 4.0190 5.2848
v 0.0000 4.8860 5.3853
v 0.0000 8.2618 4.4815
v 0.0000 -3.7068 5.8649
v 0.0000 -3.9183 5.5694
v 0.0000 -3.9944 5.2195
v 0.0000 -4.5424 5.4048
v 0.0000 -4.7456 5.5295
v 0.0000 -5.0196 5.6014
v 0.0000 -5.3651 5.5354
v 0.0000 -6.1496 5.0714
v 0.0000 -1.5011 7.1122
v -0.4161 -1.4664 6.4477
v -7.0880 5.4348 0.0996
v -2.6286 2.0359 3.8481
v -3.1984 1.9858 3.7970
v -3.7752 2.0394 3.6462
v -4.4658 2.4230 3.1552
v -2.1643 2.1899 3.8518
v -3.2082 3.2239 4.1158
v -2.6738 3.2053 4.0922
v -3.7452 3.1653 3.9724
v -4.1610 3.0591 3.7196
v -5.0620 1.9344 2.7761
v -2.2667 -7.4258 4.3898
v -4.4459 2.6640 3.1734
v -7.2145 2.2630 0.0732
v -5.7998 2.3495 2.2041
v -2.8449 -0.7209 4.4331
v -0.7115 -3.3294 5.8770
v -0.6060 -3.9246 5.4449
v -1.4316 -3.5010 5.4962
v -1.9149 -3.8031 5.0289
v -1.1310 -3.9739 5.1896
v -1.5635 -4.0828 4.8423
v -2.6501 -5.0036 4.1885
v -0.4270 -1.0941 7.3605
v -0.4964 -0.4757 7.4404
v -5.2533 3.8816 3.3632
v -1.7187 0.9746 4.5584
v -1.6086 -0.9425 5.8142
v -1.6513 -0.6109 5.5813
v -4.7655 -0.7016 3.5346
v -0.4783 0.2958 7.1010
v -3.7350 4.5082 4.5505
v -4.5886 4.3020 4.0485
v -6.2793 6.6154 1.4259
v -1.2209 4.1422 5.1060
v -2.1935 3.1003 4.0006
v -3.1026 -4.3530 4.0959
v -6.7197 -4.7886 -1.7454
v -1.1938 -1.3068 5.7377
v -0.7298 -1.5937 5.8332
v -2.4562 -4.3426 4.2839
v -2.2048 -4.3045 4.1625
v -4.9859 4.8025 3.7520
v -1.5923 -1.2577 5.4569
v -2.6445 4.5247 4.9216
v -2.7603 5.1010 5.0160
v -3.5240 8.0060 3.7292
v -5.5998 5.7155 2.7243
v -3.0639 6.5661 4.5300
v -5.7210 4.2546 2.8309
v -6.3744 4.7856 1.5917
v -0.6727 -3.6880 5.7378
v -1.2626 -3.7877 5.4178
v -1.7326 -3.9528 5.0006
v -1.0436 -1.4650 5.6625
v -2.3212 -4.3291 4.2582
v -2.0568 -4.4777 4.5209
v -2.1531 -4.2763 4.0381
v -0.9469 -1.0352 6.5123
v -1.4691 -4.0364 4.6049
v -1.0243 -3.9899 4.9267
v -0.5334 -3.9932 5.1382
v -0.7697 -6.0954 4.9859
v -0.6996 -5.2919 5.4483
v -0.6697 -4.9498 5.5096
v -0.6309 -4.6951 5.4494
v -0.5832 -4.5180 5.3399
v -1.5372 -4.4232 4.7455
v -1.6156 -4.4759 4.8136
v -1.7291 -4.6187 4.8545
v -1.8386 -4.8287 4.8237
v -2.3683 -3.1062 4.8681
v -7.5422 -1.0493 -2.4313
v 0.0000 -1.7240 6.6014
v -1.8266 -4.3995 4.3990
v -1.9296 -4.4118 4.4971
v -0.5974 -2.0137 5.8665
v -1.4056 -1.7142 5.2411
v -0.6624 -1.8193 5.8638
v -2.3423 0.5722 4.2943
v -3.3273 0.1049 4.1139
v -1.7262 -0.9192 5.2734
v -5.1332 7.4856 2.6604
v -4.5386 6.3199 3.6834
v -3.9866 5.1095 4.4663
v -2.1697 -5.4404 4.4559
v -1.3956 5.0120 5.3160
v -1.6195 6.5992 4.9211
v -1.8914 8.2364 4.2750
v -4.1958 2.2352 3.3751
v -5.7333 1.4117 2.4317
v -1.8599 2.3558 3.8432
v -4.9886 3.0747 3.0839
v -1.3033 1.4165 4.8311
v -1.3058 -0.6728 6.4160
v -6.4652 0.9371 1.6899
v -5.2587 0.9458 2.9743
v -4.4323 0.7221 3.5226
v -3.3007 0.8616 3.8728
v -2.4302 1.1315 4.0390
v -1.8207 1.4680 4.2241
v -0.5632 2.3077 5.5668
v -6.3381 -0.5293 1.8812
v -5.5877 3.2081 2.6878
v -0.2426 -1.4629 7.0715
v -1.6113 0.3393 4.8954
v -7.7431 2.3650 -2.0052
v -1.3911 1.8510 4.4490
v -1.7858 -0.9783 4.8505
v -4.6710 2.6645 3.0841
v -1.3340 -0.2838 6.0970
v -7.2709 -2.8909 -2.2525
v -1.8564 2.5852 3.7579
v -0.9234 0.0731 6.6719
v -5.0006 -6.1351 1.8925
v -5.0853 -7.1786 0.7147
v -7.1593 -0.8118 -0.0720
v -5.8431 -5.2480 0.9241
v -6.8473 3.6629 0.7247
v -2.4129 -8.2589 4.1192
v -0.1799 -1.6899 6.5733
v -2.1037 -0.1639 4.5661
v -6.4076 2.2360 1.5608
v -3.6701 2.3602 3.6352
v -3.1772 2.2943 3.7757
v -2.1961 -4.5983 4.4798
v -6.2349 -1.9444 1.6635
v -1.2929 -9.2959 4.0941
v -3.2107 -8.5333 2.8020
v -4.0689 -7.9931 1.9251
v 0.0000 6.5454 5.0273
v 0.0000 -9.4034 4.2645
v -2.7240 2.3158 3.7772
v -2.2885 2.3989 3.6976
v -1.9983 2.4965 3.6891
v -6.1300 3.3993 2.0385
v -2.2885 2.8865 3.7750
v -2.7240 2.9618 3.8718
v -3.1772 2.9641 3.8770
v -3.6701 2.9277 3.7243
v -4.0184 2.8574 3.4830
v -7.5558 4.1068 -0.9919
v -4.0184 2.4837 3.4409
v 0.0000 -2.5219 5.9323
v -1.7762 -2.6839 5.2131
v -1.2222 -1.1824 5.9525
v -0.7315 -2.5367 5.8153
v 0.0000 3.2710 5.2360
v -4.1353 -6.9966 2.6720
v -3.3118 -7.6608 3.3830
v -1.3137 -8.6400 4.7025
v -5.9405 -6.2236 -0.6315
v -1.9983 2.7438 3.7440
v -0.9014 1.2370 5.7543
v 0.0000 -8.7652 4.8914
v -2.3090 -8.9742 3.6091
v -6.9542 -2.4398 -0.1312
v -1.0988 -4.4588 5.1207
v -1.1811 -4.5800 5.1896
v -1.2558 -4.7879 5.2371
v -1.3251 -5.1065 5.2050
v -1.5464 -5.8194 4.7579
v -1.9538 -4.1839 4.4317
v -2.1178 -4.1371 4.5551
v -2.2853 -4.0512 4.5824
v -2.8502 -3.6657 4.4850
v -5.2785 -2.2389 2.8612
v -0.9467 1.9076 5.1968
v -1.3142 3.1049 4.2314
v -1.7800 2.8600 3.8816
v -1.8451 -4.0989 4.2473
v -5.4362 -4.0305 2.1099
v -0.7664 3.1821 4.8615
v -1.9386 -6.6144 4.5211
v 0.0000 1.0594 6.7746
v -0.5166 1.5836 6.1484
v 0.0000 1.7284 6.3167
v -1.2468 0.2303 5.6810
v 0.0000 -7.9422 5.1812
v 0.0000 -6.9915 5.1535
v -0.9978 -6.9309 4.9796
v -3.2888 -5.3825 3.7958
v -2.3116 -1.5662 4.5901
v -2.6803 -6.1116 4.0962
v -3.8329 -1.5373 4.1377
v -2.9619 -2.2742 4.4409
v -4.3869 -2.6833 3.6439
v -1.2173 -7.8345 4.9693
v -1.5424 -0.1368 5.2010
v -3.8784 -6.0418 3.3111
v -3.0840 -6.8098 3.8142
v -3.7473 -4.5035 3.7265
v -6.0941 -3.2060 1.4735
v -4.5890 -4.7287 2.9832
v -6.5832 -3.9413 0.0703
v -3.4926 -3.1958 4.1302
v -1.2555 0.8023 5.3076
v -1.1261 -0.9336 6.5388
v -1.4431 -1.1428 5.9051
v -0.9230 -0.5290 7.0034
v -1.7554 3.5291 4.3277
v -2.6326 3.7138 4.3646
v -3.3881 3.7220 4.3090
v -4.0758 3.6754 4.0761
v -4.6229 3.4747 3.6463
v -5.1718 2.5358 2.6709
v -7.2973 0.7632 -0.0488
v -4.7068 1.6510 3.1095
v -4.0717 1.4768 3.4769
v -3.2698 1.4707 3.7319
v -2.5276 1.6173 3.8654
v -1.9709 1.8585 3.9618
v -1.5795 2.0979 4.0850
v -7.6642 0.6731 -2.4359
v -1.3970 -1.3401 5.6304
v -0.8848 0.6587 6.2332
v -0.7671 -0.9680 7.0779
v -0.4602 -1.3341 6.7874
v -0.7486 -1.0680 6.7983
v -1.2364 -1.5856 5.4805
v -0.3873 -1.4100 6.9577
v -0.3199 -1.6079 6.5087
v -1.6396 2.5563 3.8637
v -1.2556 2.4671 4.2038
v -1.0314 2.3827 4.6158
v -4.2531 2.7723 3.3153
v -4.5300 2.9100 3.3397
v 0.4639 0.9554 6.6336
v 4.2531 2.5776 3.2797
v 0.4161 -1.4664 6.4477
v 7.0880 5.4348 0.0996
v 2.6286 2.0359 3.8481
v 3.1984 1.9858 3.7970
v 3.7752 2.0394 3.6462
v 4.4658 2.4230 3.1552
v 2.1643 2.1899 3.8518
v 3.2082 3.2239 4.1158
v 2.6738 3.2053 4.0922
v 3.7452 3.1653 3.9724
v 4.1610 3.0591 3.7196
v 5.0620 1.9344 2.7761
v 2.2667 -7.4258 4.3898
v 4.4459 2.6640 3.1734
v 7.2145 2.2630 0.0732
v 5.7998 2.3495 2.2041
v 2.8449 -0.7209 4.4331
v 0.7115 -3.3294 5.8770
v 0.6060 -3.9246 5.4449
v 1.4316 -3.5010 5.4962
v 1.9149 -3.8031 5.0289
v 1.1310 -3.9739 5.1896
v 1.5635 -4.0828 4.8423
v 2.6501 -5.0036 4.1885
v 0.4270 -1.0941 7.3605
v 0.4964 -0.4757 7.4404
v 5.2533 3.8816 3.3632
v 1.7187 0.9746 4.5584
v 1.6086 -0.9425 5.8142
v 1.6513 -0.6109 5.5813
v 4.7655 -0.7016 3.5346
v 0.4783 0.2958 7.1010
v 3.7350 4.5082 4.5505
v 4.5886 4.3020 4.0485
v 6.2793 6.6154 1.4259
v 1.2209 4.1422 5.1060
v 2.1935 3.1003 4.0006
v 3.1026 -4.3530 4.0959
v 6.7197 -4.7886 -1.7454
v 1.1938 -1.3068 5.7377
v 0.7298 -1.5937 5.8332
v 2.4562 -4.3426 4.2839
v 2.2048 -4.3045 4.1625
v 4.9859 4.8025 3.7520
v 1.5923 -1.2577 5.4569
v 2.6445 4.5247 4.9216
v 2.7603 5.1010 5.0160
v 3.5240 8.0060 3.7292
v 5.5998 5.7155 2.7243
v 3.0639 6.5661 4.5300
v 5.7210 4.2546 2.8309
v 6.3744 4.7856 1.5917
v 0.6727 -3.6880 5.7378
v 1.2626 -3.7877 5.4178
v 1.7326 -3.9528 5.0006
v 1.0436 -1.4650 5.6625
v 2.3212 -4.3291 4.2582
v 2.0568 -4.4777 4.5209
v 2.1531 -4.2763 4.0381
v 0.9469 -1.0352 6.5123
v 1.4691 -4.0364 4.6049
v 1.0243 -3.9899 4.9267
v 0.5334 -3.9932 5.1382
v 0.7697 -6.0954 4.9859
v 0.6996 -5.2919 5.4483
v 0.6697 -4.9498 5.5096
v 0.6309 -4.6951 5.4494
v 0.5832 -4.5180 5.3399
v 1.5372 -4.4232 4.7455
v 1.6156 -4.4759 4.8136
v 1.7291 -4.6187 4.8545
v 1.8386 -4.8287 4.8237
v 2.3683 -3.1062 4.8681
v 7.5422 -1.0493 -2.4313
v 1.8266 -4.3995 4.3990
v 1.9296 -4.4118 4.4971
v 0.5974 -2.0137 5.8665
v 1.4056 -1.7142 5.2411
v 0.6624 -1.8193 5.8638
v 2.3423 0.5722 4.2943
v 3.3273 0.1049 4.1139
v 1.7262 -0.9192 5.2734
v 5.1332 7.4856 2.6604
v 4.5386 6.3199 3.6834
v 3.9866 5.1095 4.4663
v 2.1697 -5.4404 4.4559
v 1.3956 5.0120 5.3160
v 1.6195 6.5992 4.9211
v 1.8914 8.2364 4.2750
v 4.1958 2.2352 3.3751
v 5.7333 1.4117 2.4317
v 1.8599 2.3558 3.8432
v 4.9886 3.0747 3.0839
v 1.3033 1.4165 4.8311
v 1.3058 -0.6728 6.4160
v 6.4652 0.9371 1.6899
v 5.2587 0.9458 2.9743
v 4.4323 0.7221 3.5226
v 3.3007 0.8616 3.8728
v 2.4302 1.1315 4.0390
v 1.8207 1.4680 4.2241
v 0.5632 2.3077 5.5668
v 6.3381 -0.5293 1.8812
v 5.5877 3.2081 2.6878
v 0.2426 -1.4629 7.0715
v 1.6113 0.3393 4.8954
v 7.7431 2.3650 -2.0052
v 1.3911 1.8510 4.4490
v 1.7858 -0.9783 4.8505
v 4.6710 2.6645 3.0841
v 1.3340 -0.2838 6.0970
v 7.2709 -2.8909 -2.2525
v 1.8564 2.5852 3.7579
v 0.9234 0.0731 6.6719
v 5.0006 -6.1351 1.8925
v 5.0853 -7.1786 0.7147
v 7.1593 -0.8118 -0.0720
v 5.8431 -5.2480 0.9241
v 6.8473 3.6629 0.7247
v 2.4129 -8.2589 4.1192
v 0.1799 -1.6899 6.5733
v 2.1037 -0.1639 4.5661
v 6.4076 2.2360 1.5608
v 3.6701 2.3602 3.6352
v 3.1772 2.2943 3.7757
v 2.1961 -4.5983 4.4798
v 6.2349 -1.9444 1.6635
v 1.2929 -9.2959 4.0941
v 3.2107 -8.5333 2.8020
v 4.0689 -7.9931 1.9251
v 2.7240 2.3158 3.7772
v 2.2885 2.3989 3.6976
v 1.9983 2.4965 3.6891
v 6.1300 3.3993 2.0385
v 2.2885 2.8865 3.7750
v 2.7240 2.9618 3.8718
v 3.1772 2.9641 3.8770
v 3.6701 2.9277 3.7243
v 4.0184 2.8574 3.4830
v 7.5558 4.1068 -0.9919
v 4.0184 2.4837 3.4409
v 1.7762 -2.6839 5.2131
v 1.2222 -1.1824 5.9525
v 0.7315 -2.5367 5.8153
v 4.1353 -6.9966 2.6720
v 3.3118 -7.6608 3.3830
v 1.3137 -8.6400 4.7025
v 5.9405 -6.2236 -0.6315
v 1.9983 2.7438 3.7440
v 0.9014 1.2370 5.7543
v 2.3090 -8.9742 3.6091
v 6.9542 -2.4398 -0.1312
v 1.0988 -4.4588 5.1207
v 1.1811 -4.5800 5.1896
v 1.2558 -4.7879 5.2371
v 1.3251 -5.1065 5.2050
v 1.5464 -5.8194 4.7579
v 1.9538 -4.1839 4.4317
v 2.1178 -4.1371 4.5551
v 2.2853 -4.0512 4.5824
v 2.8502 -3.6657 4.4850
v 5.2785 -2.2389 2.8612
v 0.9467 1.9076 5.1968
v 1.3142 3.1049 4.2314
v 1.7800 2.8600 3.8816
v 1.8451 -4.0989 4.2473
v 5.4362 -4.0305 2.1099
v 0.7664 3.1821 4.8615
v 1.9386 -6.6144 4.5211
v 0.5166 1.5836 6.1484
v 1.2468 0.2303 5.6810
v 0.9978 -6.9309 4.9796
v 3.2888 -5.3825 3.7958
v 2.3116 -1.5662 4.5901
v 2.6803 -6.1116 4.0962
v 3.8329 -1.5373 4.1377
v 2.9619 -2.2742 4.4409
v 4.3869 -2.6833 3.6439
v 1.2173 -7.8345 4.9693
v 1.5424 -0.1368 5.2010
v 3.8784 -6.0418 3.3111
v 3.0840 -6.8098 3.8142
v 3.7473 -4.5035 3.7265
v 6.0941 -3.2060 1.4735
v 4.5890 -4.7287 2.9832
v 6.5832 -3.9413 0.0703
v 3.4926 -3.1958 4.1302
v 1.2555 0.8023 5.3076
v 1.1261 -0.9336 6.5388
v 1.4431 -1.1428 5.9051
v 0.9230 -0.5290 7.0034
v 1.7554 3.5291 4.3277
v 2.6326 3.7138 4.3646
v 3.3881 3.7220 4.3090
v 4.0758 3.6754 4.0761
v 4.6229 3.4747 3.6463
v 5.1718 2.5358 2.6709
v 7.2973 0.7632 -0.0488
v 4.7068 1.6510 3.1095
v 4.0717 1.4768 3.4769
v 3.2698 1.4707 3.7319
v 2.5276 1.6173 3.8654
v 1.9709 1.8585 3.9618
v 1.5795 2.0979 4.0850
v 7.6642 0.6731 -2.4359
v 1.3970 -1.3401 5.6304
v 0.8848 0.6587 6.2332
v 0.7671 -0.9680 7.0779
v 0.4602 -1.3341 6.7874
v 0.7486 -1.0680 6.7983
v 1.2364 -1.5856 5.4805
v 0.3873 -1.4100 6.9577
v 0.3199 -1.6079 6.5087
v 1.6396 2.5563 3.8637
v 1.2556 2.4671 4.2038
v 1.0314 2.3827 4.6158
v 4.2531 2.7723 3.3153
v 4.5300 2.9100 3.3397
v 7.4674 3.0948 -3.7380
v 7.3921 4.8266 -2.8146
v 7.0872 6.2467 -1.8346
v 6.4744 7.6518 -0.6250
v 5.4793 8.8419 0.5584
v 3.9215 9.7658 1.6856
v 2.1679 10.2877 2.3330
v 0.0000 10.4533 2.6107
v -2.1679 10.2877 2.3330
v -3.9215 9.7658 1.6856
v -5.4793 8.8419 0.5584
v -6.4744 7.6518 -0.6250
v -7.0872 6.2467 -1.8346
v -7.3921 4.8266 -2.8146
v -7.4674 3.0948 -3.7380
v -7.4058 1.4804 -4.2030
v -7.3643 -0.1461 -4.3768
v -7.2027 -1.9032 -4.4831
v -6.8292 -3.7954 -4.3856
v -6.3352 -5.4470 -3.7570
v -5.7574 -6.7918 -2.8682
v -4.8844 -8.0687 -2.0776
v -4.0234 -8.9840 -1.5103
v -1.6545 -9.4034 -1.2640
v -0.9498 -9.4034 -1.1036
v 0.0000 -9.4034 -1.0460
v 0.9498 -9.4034 -1.1036
v 1.6545 -9.4034 -1.2640
v 4.0234 -8.9840 -1.5103
v 4.8844 -8.0687 -2.0776
v 5.7574 -6.7918 -2.8682
v 6.3352 -5.4470 -3.7570
v 6.8292 -3.7954 -4.3856
v 7.2027 -1.9032 -4.4831
v 7.3643 -0.1461 -4.3768
v 7.4058 1.4804 -4.2030
v 6.7644 3.8078 -5.4232
v 6.7928 5.4408 -4.6755
v 6.6361 6.8679 -3.9042
v 6.2276 8.4068 -2.9498
v 5.4465 9.8644 -1.9829
v 4.0701 11.2253 -0.9868
v 2.3261 12.1269 -0.3630
v 0.0000 12.5005 -0.0703
v -2.3261 12.1269 -0.3630
v -4.0701 11.2253 -0.9868
v -5.4465 9.8644 -1.9829
v -6.2276 8.4068 -2.9498
v -6.6361 6.8679 -3.9042
v -6.7928 5.4408 -4.6755
v -6.7644 3.8078 -5.4232
v -6.6839 2.3560 -5.8550
v -6.6457 0.9351 -6.1231
v -6.5011 -0.5740 -6.4035
v -6.2033 -2.2038 -6.6003
v -5.8916 -3.7224 -6.4286
v -5.5366 -5.0833 -6.0616
v -4.8566 -6.4518 -5.7847
v -4.1030 -7.4843 -5.6088
v -3.1415 -8.4270 -5.4528
v -1.8311 -9.1174 -5.4060
v 0.0000 -9.4034 -3.6880
v 1.8311 -9.1174 -5.4060
v 3.1415 -8.4270 -5.4528
v 4.1030 -7.4843 -5.6088
v 4.8566 -6.4518 -5.7847
v 5.5366 -5.0833 -6.0616
v 5.8916 -3.7224 -6.4286
v 6.2033 -2.2038 -6.6003
v 6.5011 -0.5740 -6.4035
v 6.6457 0.9351 -6.1231
v 6.6839 2.3560 -5.8550
v 5.5958 4.4512 -6.9346
v 5.6690 5.8597 -6.4200
v 5.5907 7.1383 -5.9161
v 5.3128 8.5791 -5.3143
v 4.7167 10.0141 -4.7165
v 3.5990 11.4628 -4.0962
v 2.0881 12.4695 -3.7105
v 0.0000 12.9229 -3.5237
v -2.0881 12.4695 -3.7105
v -3.5990 11.4628 -4.0962
v -4.7167 10.0141 -4.7165
v -5.3128 8.5791 -5.3143
v -5.5907 7.1383 -5.9161
v -5.6690 5.8597 -6.4200
v -5.5958 4.4512 -6.9346
v -5.5047 3.2468 -7.2691
v -5.4447 2.1078 -7.5311
v -5.2813 0.9372 -7.8378
v -5.0032 -0.2922 -8.1321
v -4.7682 -1.4455 -8.2167
v -4.5224 -2.5011 -8.1928
v -3.9947 -3.5609 -8.2473
v -3.3887 -4.3560 -8.3234
v -2.6034 -5.0797 -8.4072
v -1.5186 -5.6014 -8.5087
v 0.0000 -5.8244 -8.5561
v 1.5186 -5.6014 -8.5087
v 2.6034 -5.0797 -8.4072
v 3.3887 -4.3560 -8.3234
v 3.9947 -3.5609 -8.2473
v 4.5224 -2.5011 -8.1928
v 4.7682 -1.4455 -8.2167
v 5.0032 -0.2922 -8.1321
v 5.2813 0.9372 -7.8378
v 5.4447 2.1078 -7.5311
v 5.5047 3.2468 -7.2691
v 3.9897 4.9578 -8.1125
v 4.0418 5.9955 -7.8255
v 3.9774 6.9433 -7.5635
v 3.7623 8.0100 -7.2718
v 3.3183 9.0603 -7.0008
v 2.5136 10.1086 -6.7331
v 1.4476 10.8106 -6.5765
v 0.0000 11.1260 -6.5006
v -1.4476 10.8106 -6.5765
v -2.5136 10.1086 -6.7331
v -3.3183 9.0603 -7.0008
v -3.7623 8.0100 -7.2718
v -3.9774 6.9433 -7.5635
v -4.0418 5.9955 -7.8255
v -3.9897 4.9578 -8.1125
v -3.9212 4.0873 -8.3207
v -3.8606 3.2841 -8.5064
v -3.7081 2.4836 -8.7290
v -3.4713 1.6748 -8.9605
v -3.2880 0.9340 -9.0954
v -3.1080 0.2665 -9.1812
v -2.7283 -0.3858 -9.3120
v -2.2999 -0.8604 -9.4312
v -1.7555 -1.2807 -9.5496
v -1.0182 -1.5769 -9.6524
v 0.0000 -1.7044 -9.6966
v 1.0182 -1.5769 -9.6524
v 1.7555 -1.2807 -9.5496
v 2.2999 -0.8604 -9.4312
v 2.7283 -0.3858 -9.3120
v 3.1080 0.2665 -9.1812
v 3.2880 0.9340 -9.0954
v 3.4713 1.6748 -8.9605
v 3.7081 2.4836 -8.7290
v 3.8606 3.2841 -8.5064
v 3.9212 4.0873 -8.3207
v 2.0612 5.2636 -8.8067
v 2.0705 5.8087 -8.6915
v 2.0158 6.2969 -8.5921
v 1.8783 6.8305 -8.4884
v 1.6282 7.3343 -8.3968
v 1.2106 7.8158 -8.3100
v 0.6876 8.1215 -8.2592
v 0.0000 8.2564 -8.2349
v -0.6876 8.1215 -8.2592
v -1.2106 7.8158 -8.3100
v -1.6282 7.3343 -8.3968
v -1.8783 6.8305 -8.4884
v -2.0158 6.2969 -8.5921
v -2.0705 5.8087 -8.6915
v -2.0612 5.2636 -8.8067
v -2.0356 4.8050 -8.8991
v -2.0051 4.3841 -8.9870
v -1.9170 3.9689 -9.0884
v -1.7809 3.5596 -9.1947
v -1.6777 3.1953 -9.2716
v -1.5784 2.8741 -9.3322
v -1.3754 2.5674 -9.4053
v -1.1514 2.3506 -9.4655
v -0.8726 2.1640 -9.5227
v -0.5032 2.0346 -9.5678
v 0.0000 1.9783 -9.5867
v 0.5032 2.0346 -9.5678
v 0.8726 2.1640 -9.5227
v 1.1514 2.3506 -9.4655
v 1.3754 2.5674 -9.4053
v 1.5784 2.8741 -9.3322
v 1.6777 3.1953 -9.2716
v 1.7809 3.5596 -9.1947
v 1.9170 3.9689 -9.0884
v 2.0051 4.3841 -8.9870
v 2.0356 4.8050 -8.8991
v 0.0000 5.3184 -8.9009
v 0.0000 5.3184 -8.9009
v 0.0000 5.3184 -8.9009
v 0.0000 5.3184 -8.9009
v 0.0000 5.3184 -8.9009
v 0.0000 5.3184 -8.9009
v 0.0000 5.3184 -8.9009
v 0.0000 5.3184 -8.9009
v 0.0000 5.3184 -8.9009
v 0.0000 5.3184 -8.9009
v 0.0000 5.3184 -8.9009
v 0.0000 5.3184 -8.9009
v 0.0000 5.3184 -8.9009
v 0.0000 5.3184 -8.9009
v 0.0000 5.3184 -8.9009
v 0.0000 5.3184 -8.9009
v 0.0000 5.3184 -8.9009
v 0.0000 5.3184 -8.9009
v 0.0000 5.3184 -8.9009
v 0.0000 5.3184 -8.9009
v 0.0000 5.3184 -8.9009
v 0.0000 5.3184 -8.9009
v 0.0000 5.3184 -8.9009
v 0.0000 5.3184 -8.9009
v 0.0000 5.3184 -8.9009
v 0.0000 5.3184 -8.9009
v 0.0000 5.3184 -8.9009
v 0.0000 5.3184 -8.9009
v 0.0000 5.3184 -8.9009
v 0.0000 5.3184 -8.9009
v 0.0000 5.3184 -8.9009
v 0.0000 5.3184 -8.9009
v 0.0000 5.3184 -8.9009
v 0.0000 5.3184 -8.9009
v 0.0000 5.3184 -8.9009
v 0.0000 5.3184 -8.9009
v -2.6000 7.2000 -0.4000
v -4.2000 6.9000 -0.8000
v -3.8000 6.4000 -1.8000
v -2.2000 6.7000 -1.4000
v -3.8000 12.8000 -1.0000
v 2.6000 7.2000 -0.4000
v 4.2000 6.9000 -0.8000
v 3.8000 6.4000 -1.8000
v 2.2000 6.7000 -1.4000
v 3.8000 12.8000 -1.0000
v 4.6000 -5.5000 -1.6000
v 4.1445 -5.5000 0.1789
v 2.8681 -5.5000 1.6055
v 1.0236 -5.5000 2.3972
v -1.0236 -5.5000 2.3972
v -2.8681 -5.5000 1.6055
v -4.1445 -5.5000 0.1789
v -4.6000 -5.5000 -1.6000
v -4.1445 -5.5000 -3.3789
v -2.8681 -5.5000 -4.8055
v -1.0236 -5.5000 -5.5972
v 1.0236 -5.5000 -5.5972
v 2.8681 -5.5000 -4.8055
v 4.1445 -5.5000 -3.3789
v 4.6460 -6.4375 -1.6000
v 4.1859 -6.4375 0.1919
v 2.8967 -6.4375 1.6289
v 1.0338 -6.4375 2.4264
v -1.0338 -6.4375 2.4264
v -2.8967 -6.4375 1.6289
v -4.1859 -6.4375 0.1919
v -4.6460 -6.4375 -1.6000
v -4.1859 -6.4375 -3.3919
v -2.8967 -6.4375 -4.8289
v -1.0338 -6.4375 -5.6264
v 1.0338 -6.4375 -5.6264
v 2.8967 -6.4375 -4.8289
v 4.1859 -6.4375 -3.3919
v 4.7717 -7.3750 -1.6000
v 4.2992 -7.3750 0.2275
v 2.9751 -7.3750 1.6930
v 1.0618 -7.3750 2.5063
v -1.0618 -7.3750 2.5063
v -2.9751 -7.3750 1.6930
v -4.2992 -7.3750 0.2275
v -4.7717 -7.3750 -1.6000
v -4.2992 -7.3750 -3.4275
v -2.9751 -7.3750 -4.8930
v -1.0618 -7.3750 -5.7063
v 1.0618 -7.3750 -5.7063
v 2.9751 -7.3750 -4.8930
v 4.2992 -7.3750 -3.4275
v 4.9710 -8.3125 -1.6000
v 4.4788 -8.3125 0.2838
v 3.0994 -8.3125 1.7945
v 1.1062 -8.3125 2.6328
v -1.1062 -8.3125 2.6328
v -3.0994 -8.3125 1.7945
v -4.4788 -8.3125 0.2838
v -4.9710 -8.3125 -1.6000
v -4.4788 -8.3125 -3.4838
v -3.0994 -8.3125 -4.9945
v -1.1062 -8.3125 -5.8328
v 1.1062 -8.3125 -5.8328
v 3.0994 -8.3125 -4.9945
v 4.4788 -8.3125 -3.4838
v 5.2409 -9.2500 -1.6000
v 4.7219 -9.2500 0.3601
v 3.2677 -9.2500 1.9319
v 1.1662 -9.2500 2.8042
v -1.1662 -9.2500 2.8042
v -3.2677 -9.2500 1.9319
v -4.7219 -9.2500 0.3601
v -5.2409 -9.2500 -1.6000
v -4.7219 -9.2500 -3.5601
v -3.2677 -9.2500 -5.1319
v -1.1662 -9.2500 -6.0042
v 1.1662 -9.2500 -6.0042
v 3.2677 -9.2500 -5.1319
v 4.7219 -9.2500 -3.5601
v 5.5793 -10.1875 -1.6000
v 5.0268 -10.1875 0.4557
v 3.4787 -10.1875 2.1042
v 1.2415 -10.1875 3.0191
v -1.2415 -10.1875 3.0191
v -3.4787 -10.1875 2.1042
v -5.0268 -10.1875 0.4557
v -5.5793 -10.1875 -1.6000
v -5.0268 -10.1875 -3.6557
v -3.4787 -10.1875 -5.3042
v -1.2415 -10.1875 -6.2191
v 1.2415 -10.1875 -6.2191
v 3.4787 -10.1875 -5.3042
v 5.0268 -10.1875 -3.6557
v 5.9848 -11.1250 -1.6000
v 5.3921 -11.1250 0.5703
v 3.7314 -11.1250 2.3107
v 1.3317 -11.1250 3.2765
v -1.3317 -11.1250 3.2765
v -3.7314 -11.1250 2.3107
v -5.3921 -11.1250 0.5703
v -5.9848 -11.1250 -1.6000
v -5.3921 -11.1250 -3.7703
v -3.7314 -11.1250 -5.5107
v -1.3317 -11.1250 -6.4765
v 1.3317 -11.1250 -6.4765
v 3.7314 -11.1250 -5.5107
v 5.3921 -11.1250 -3.7703
v 6.4560 -12.0625 -1.6000
v 5.8166 -12.0625 0.7034
v 4.0252 -12.0625 2.5506
v 1.4366 -12.0625 3.5758
v -1.4366 -12.0625 3.5758
v -4.0252 -12.0625 2.5506
v -5.8166 -12.0625 0.7034
v -6.4560 -12.0625 -1.6000
v -5.8166 -12.0625 -3.9034
v -4.0252 -12.0625 -5.7506
v -1.4366 -12.0625 -6.7758
v 1.4366 -12.0625 -6.7758
v 4.0252 -12.0625 -5.7506
v 5.8166 -12.0625 -3.9034
v 6.9920 -13.0000 -1.6000
v 6.2996 -13.0000 0.8549
v 4.3594 -13.0000 2.8236
v 1.5559 -13.0000 3.9161
v -1.5559 -13.0000 3.9161
v -4.3594 -13.0000 2.8236
v -6.2996 -13.0000 0.8549
v -6.9920 -13.0000 -1.6000
v -6.2996 -13.0000 -4.0549
v -4.3594 -13.0000 -6.0236
v -1.5559 -13.0000 -7.1161
v 1.5559 -13.0000 -7.1161
v 4.3594 -13.0000 -6.0236
v 6.2996 -13.0000 -4.0549
f 174 156 134
f 247 34 8
f 383 399 363
f 264 467 250
f 309 416 325
f 79 96 192
f 357 390 265
f 128 35 163
f 369 265 390
f 140 163 35
f 268 1 303
f 38 73 1
f 12 303 1
f 12 1 73
f 350 452 351
f 121 122 232
f 453 351 452
f 233 232 122
f 268 303 270
f 38 40 73
f 304 270 303
f 74 73 40
f 358 344 351
f 129 122 115
f 278 351 344
f 48 115 122
f 351 453 358
f 122 129 233
f 454 358 453
f 234 233 129
f 300 334 298
f 70 68 105
f 333 298 334
f 104 105 68
f 176 153 397
f 176 172 153
f 378 397 153
f 149 153 172
f 382 385 383
f 155 156 158
f 399 383 385
f 174 158 156
f 281 348 331
f 51 102 119
f 349 331 348
f 120 119 102
f 270 304 271
f 40 41 74
f 305 271 304
f 75 74 41
f 10 337 152
f 10 152 108
f 338 152 337
f 109 108 152
f 345 279 361
f 116 132 49
f 280 361 279
f 50 49 132
f 263 432 419
f 33 195 212
f 425 419 432
f 205 212 195
f 305 409 271
f 75 41 185
f 410 271 409
f 186 185 41
f 273 311 408
f 43 184 81
f 416 408 311
f 192 81 184
f 323 271 411
f 93 187 41
f 410 411 271
f 186 41 187
f 348 450 349
f 119 120 230
f 451 349 450
f 231 230 120
f 435 433 431
f 215 211 213
f 423 431 433
f 203 213 211
f 314 315 19
f 84 19 85
f 18 19 315
f 18 85 19
f 308 376 307
f 78 77 147
f 292 307 376
f 62 147 77
f 260 388 261
f 30 31 161
f 389 261 388
f 162 161 31
f 287 415 385
f 57 158 191
f 399 385 415
f 174 191 158
f 419 425 407
f 195 183 205
f 336 407 425
f 107 205 183
f 368 417 365
f 139 136 193
f 435 365 417
f 215 193 136
f 392 424 328
f 166 99 204
f 359 328 424
f 130 204 99
f 299 302 285
f 69 55 72
f 252 285 302
f 22 72 55
f 5 276 6
f 5 6 46
f 282 6 276
f 52 46 6
f 255 374 254
f 25 24 145
f 375 254 374
f 146 145 24
f 321 322 308
f 91 78 92
f 376 308 322
f 147 92 78
f 281 426 412
f 51 188 206
f 428 412 426
f 208 206 188
f 422 314 201
f 202 201 84
f 19 201 314
f 19 84 201
f 336 322 407
f 107 183 92
f 406 407 322
f 182 92 183
f 406 322 405
f 182 181 92
f 321 405 322
f 91 92 181
f 18 315 17
f 18 17 85
f 316 17 315
f 86 85 17
f 426 267 427
f 206 207 37
f 424 427 267
f 204 37 207
f 370 397 401
f 141 177 172
f 378 401 397
f 149 172 177
f 392 270 323
f 166 93 40
f 271 323 270
f 41 40 93
f 418 466 414
f 194 190 246
f 465 414 466
f 245 246 190
f 258 259 387
f 28 160 29
f 386 387 259
f 159 29 160
f 261 389 468
f 31 248 162
f 467 468 389
f 247 162 248
f 249 457 420
f 4 197 237
f 400 420 457
f 175 237 197
f 334 299 333
f 105 104 69
f 285 333 299
f 55 69 104
f 286 9 418
f 56 194 9
f 169 418 9
f 169 9 194
f 341 262 347
f 112 118 32
f 449 347 262
f 229 32 118
f 286 418 442
f 56 222 194
f 414 442 418
f 190 194 222
f 328 461 327
f 99 98 241
f 329 327 461
f 100 241 98
f 278 356 330
f 48 101 127
f 372 330 356
f 143 127 101
f 310 393 439
f 80 219 167
f 440 439 393
f 220 167 219
f 382 383 257
f 155 27 156
f 342 257 383
f 113 156 27
f 361 280 421
f 132 199 50
f 430 421 280
f 210 50 199
f 366 365 380
f 137 151 136
f 395 380 365
f 170 136 151
f 356 278 438
f 127 218 48
f 344 438 278
f 115 48 218
f 444 445 283
f 224 53 225
f 284 283 445
f 54 225 53
f 282 276 364
f 52 135 46
f 441 364 276
f 221 46 135
f 432 263 396
f 212 171 33
f 370 396 263
f 141 33 171
f 338 300 339
f 109 110 70
f 298 339 300
f 68 70 110
f 336 274 322
f 107 92 44
f 376 322 274
f 147 44 92
f 349 451 350
f 120 121 231
f 452 350 451
f 232 231 121
f 468 360 343
f 248 114 131
f 447 343 360
f 227 131 114
f 283 284 335
f 53 106 54
f 294 335 284
f 64 54 106
f 251 459 463
f 21 243 239
f 462 463 459
f 242 239 243
f 277 354 301
f 47 71 125
f 384 301 354
f 157 125 71
f 326 293 325
f 97 96 63
f 309 325 293
f 79 63 96
f 284 277 294
f 54 64 47
f 301 294 277
f 71 47 64
f 448 265 346
f 228 117 35
f 373 346 265
f 144 35 117
f 353 346 347
f 124 118 117
f 341 347 346
f 112 117 118
f 2 20 275
f 2 45 20
f 355 275 20
f 126 20 45
f 249 282 457
f 4 237 52
f 364 457 282
f 135 52 237
f 426 427 428
f 206 208 207
f 437 428 427
f 217 207 208
f 381 382 253
f 154 23 155
f 257 253 382
f 27 155 23
f 392 394 270
f 166 40 168
f 268 270 394
f 38 168 40
f 200 429 201
f 200 201 209
f 422 201 429
f 202 209 201
f 331 330 267
f 102 37 101
f 372 267 330
f 143 101 37
f 423 433 274
f 203 44 213
f 288 274 433
f 58 213 44
f 291 251 329
f 61 100 21
f 463 329 251
f 243 21 100
f 259 287 386
f 29 159 57
f 385 386 287
f 158 57 159
f 343 447 354
f 114 125 227
f 266 354 447
f 36 227 125
f 258 387 260
f 28 30 160
f 388 260 387
f 161 160 30
f 431 423 432
f 211 212 203
f 425 432 423
f 205 203 212
f 446 343 277
f 226 47 114
f 354 277 343
f 125 114 47
f 425 423 336
f 205 107 203
f 274 336 423
f 44 203 107
f 307 293 308
f 77 78 63
f 326 308 293
f 97 63 78
f 367 448 353
f 138 124 228
f 346 353 448
f 117 228 124
f 303 269 304
f 73 74 39
f 272 304 269
f 42 39 74
f 372 359 267
f 143 37 130
f 424 267 359
f 204 130 37
f 328 295 461
f 99 241 65
f 456 461 295
f 236 65 241
f 295 332 279
f 65 49 103
f 280 279 332
f 50 103 49
f 304 272 305
f 74 75 42
f 273 305 272
f 43 42 75
f 428 437 435
f 208 215 217
f 433 435 437
f 213 217 215
f 305 273 409
f 75 185 43
f 408 409 273
f 184 43 185
f 395 431 396
f 170 171 211
f 432 396 431
f 212 211 171
f 396 370 379
f 171 150 141
f 401 379 370
f 177 141 150
f 297 335 300
f 67 70 106
f 334 300 335
f 105 106 70
f 418 169 352
f 194 123 169
f 7 352 169
f 7 169 123
f 281 412 353
f 51 124 188
f 377 353 412
f 148 188 124
f 320 321 326
f 90 97 91
f 308 326 321
f 78 91 97
f 286 296 337
f 56 108 66
f 297 337 296
f 67 66 108
f 405 321 404
f 181 180 91
f 320 404 321
f 90 91 180
f 331 349 330
f 102 101 120
f 350 330 349
f 121 120 101
f 335 294 334
f 106 105 64
f 299 334 294
f 69 64 105
f 324 455 367
f 94 138 235
f 448 367 455
f 228 235 138
f 17 316 16
f 17 16 86
f 317 16 316
f 87 86 16
f 430 280 359
f 210 130 50
f 332 359 280
f 103 50 130
f 16 317 15
f 16 15 87
f 318 15 317
f 88 87 15
f 9 286 10
f 9 10 56
f 337 10 286
f 108 56 10
f 330 350 278
f 101 48 121
f 351 278 350
f 122 121 48
f 253 254 381
f 23 154 24
f 375 381 254
f 146 24 154
f 403 404 319
f 179 89 180
f 320 319 404
f 90 180 89
f 352 7 420
f 123 197 7
f 198 420 7
f 198 7 197
f 325 319 326
f 96 97 89
f 320 326 319
f 90 89 97
f 398 368 366
f 173 137 139
f 365 366 368
f 136 139 137
f 289 436 398
f 59 173 216
f 368 398 436
f 139 216 173
f 439 440 345
f 219 116 220
f 279 345 440
f 49 220 116
f 272 312 273
f 42 43 82
f 311 273 312
f 81 82 43
f 6 282 196
f 6 196 52
f 249 196 282
f 4 52 196
f 274 288 376
f 44 147 58
f 292 376 288
f 62 58 147
f 397 429 176
f 172 176 209
f 200 176 429
f 200 209 176
f 269 313 272
f 39 42 83
f 312 272 313
f 82 83 42
f 445 446 284
f 225 54 226
f 277 284 446
f 47 226 54
f 255 340 374
f 25 145 111
f 391 374 340
f 164 111 145
f 296 283 297
f 66 67 53
f 335 297 283
f 106 53 67
f 347 449 348
f 118 119 229
f 450 348 449
f 230 229 119
f 455 357 448
f 235 228 128
f 265 448 357
f 35 128 228
f 337 297 338
f 108 109 67
f 300 338 297
f 70 67 109
f 152 338 11
f 152 11 109
f 339 11 338
f 110 109 11
f 279 440 295
f 49 65 220
f 456 295 440
f 236 220 65
f 408 416 293
f 184 63 192
f 309 293 416
f 79 192 63
f 359 372 430
f 130 210 143
f 356 430 372
f 127 143 210
f 346 373 341
f 117 112 144
f 266 341 373
f 36 144 112
f 389 391 467
f 162 247 164
f 250 467 391
f 8 164 247
f 353 347 281
f 124 51 118
f 348 281 347
f 119 118 51
f 296 443 283
f 66 53 223
f 444 283 443
f 224 223 53
f 20 95 355
f 20 126 95
f 371 355 95
f 142 95 126
f 296 286 443
f 66 223 56
f 442 443 286
f 222 56 223
f 420 198 249
f 197 4 198
f 196 249 198
f 196 198 4
f 360 264 256
f 131 26 34
f 250 256 264
f 8 34 26
f 276 275 441
f 46 221 45
f 458 441 275
f 238 45 221
f 301 384 302
f 71 72 157
f 369 302 384
f 140 157 72
f 418 352 466
f 194 246 123
f 413 466 352
f 189 123 246
f 467 264 468
f 247 248 34
f 360 468 264
f 131 34 248
f 390 252 369
f 163 140 22
f 302 369 252
f 72 22 140
f 375 387 381
f 146 154 160
f 386 381 387
f 159 160 154
f 380 395 379
f 151 150 170
f 396 379 395
f 171 170 150
f 352 420 413
f 123 189 197
f 400 413 420
f 175 197 189
f 427 323 437
f 207 217 93
f 411 437 323
f 187 93 217
f 388 374 389
f 161 162 145
f 391 389 374
f 164 145 162
f 394 327 165
f 168 165 98
f 3 165 327
f 3 98 165
f 355 371 462
f 126 242 142
f 463 462 371
f 243 142 242
f 1 268 165
f 1 165 38
f 394 165 268
f 168 38 165
f 12 13 303
f 12 73 13
f 269 303 13
f 39 13 73
f 387 375 388
f 160 161 146
f 374 388 375
f 145 146 161
f 13 14 269
f 13 39 14
f 313 269 14
f 83 14 39
f 294 301 299
f 64 69 71
f 302 299 301
f 72 71 69
f 341 266 262
f 112 32 36
f 447 262 266
f 227 36 32
f 381 386 382
f 154 155 159
f 385 382 386
f 158 159 155
f 281 331 426
f 51 206 102
f 267 426 331
f 37 102 206
f 424 392 427
f 204 207 166
f 323 427 392
f 93 166 207
f 430 356 421
f 210 199 127
f 438 421 356
f 218 127 199
f 392 328 394
f 166 168 99
f 327 394 328
f 98 99 168
f 458 439 441
f 238 221 219
f 345 441 439
f 116 219 221
f 383 363 342
f 156 113 134
f 464 342 363
f 244 134 113
f 458 462 460
f 238 240 242
f 459 460 462
f 239 242 240
f 435 431 365
f 215 136 211
f 395 365 431
f 170 211 136
f 415 464 399
f 191 174 244
f 363 399 464
f 134 244 174
f 263 429 370
f 33 141 209
f 397 370 429
f 172 209 141
f 458 275 462
f 238 242 45
f 355 462 275
f 126 45 242
f 317 404 318
f 87 88 180
f 403 318 404
f 179 180 88
f 316 405 317
f 86 87 181
f 404 317 405
f 180 181 87
f 315 406 316
f 85 86 182
f 405 316 406
f 181 182 86
f 314 407 315
f 84 85 183
f 406 315 407
f 182 183 85
f 419 407 422
f 195 202 183
f 314 422 407
f 84 183 202
f 367 402 324
f 138 94 178
f 362 324 402
f 133 178 94
f 409 408 307
f 185 77 184
f 293 307 408
f 63 184 77
f 409 307 410
f 185 186 77
f 292 410 307
f 62 77 186
f 411 410 288
f 187 58 186
f 292 288 410
f 62 186 58
f 437 411 433
f 217 213 187
f 288 433 411
f 58 187 213
f 435 417 428
f 215 208 193
f 412 428 417
f 188 193 208
f 265 369 373
f 35 144 140
f 384 373 369
f 157 140 144
f 458 460 439
f 238 219 240
f 310 439 460
f 80 240 219
f 353 377 367
f 124 138 148
f 402 367 377
f 178 148 138
f 5 2 276
f 5 46 2
f 275 276 2
f 45 2 46
f 429 263 422
f 209 202 33
f 419 422 263
f 195 33 202
f 328 359 295
f 99 65 130
f 332 295 359
f 103 130 65
f 368 436 417
f 139 193 216
f 434 417 436
f 214 216 193
f 456 440 290
f 236 60 220
f 393 290 440
f 167 220 60
f 329 463 327
f 100 98 243
f 371 327 463
f 142 243 98
f 327 371 3
f 98 3 142
f 95 3 371
f 95 142 3
f 461 456 306
f 241 76 236
f 290 306 456
f 60 236 76
f 449 340 450
f 229 230 111
f 255 450 340
f 25 111 230
f 262 447 256
f 32 26 227
f 360 256 447
f 131 227 26
f 450 255 451
f 230 231 25
f 254 451 255
f 24 25 231
f 451 254 452
f 231 232 24
f 253 452 254
f 23 24 232
f 452 253 453
f 232 233 23
f 257 453 253
f 27 23 233
f 257 342 453
f 27 233 113
f 454 453 342
f 234 113 233
f 414 465 415
f 190 191 245
f 464 415 465
f 244 245 191
f 442 414 287
f 222 57 190
f 415 287 414
f 191 190 57
f 442 287 443
f 222 223 57
f 259 443 287
f 29 57 223
f 443 259 444
f 223 224 29
f 258 444 259
f 28 29 224
f 445 444 260
f 225 30 224
f 258 260 444
f 28 224 30
f 260 261 445
f 30 225 31
f 446 445 261
f 226 31 225
f 261 468 446
f 31 226 248
f 343 446 468
f 114 248 226
f 251 310 459
f 21 239 80
f 460 459 310
f 240 80 239
f 291 306 393
f 61 167 76
f 290 393 306
f 60 76 167
f 461 306 329
f 241 100 76
f 291 329 306
f 61 76 100
f 377 434 402
f 148 178 214
f 436 402 434
f 216 214 178
f 251 291 310
f 21 80 61
f 393 310 291
f 167 61 80
f 412 417 377
f 188 148 193
f 434 377 417
f 214 193 148
f 342 464 454
f 113 234 244
f 465 454 464
f 245 244 234
f 454 465 358
f 234 129 245
f 466 358 465
f 246 245 129
f 413 344 466
f 189 246 115
f 358 466 344
f 129 115 246
f 438 344 400
f 218 175 115
f 413 400 344
f 189 115 175
f 364 441 361
f 135 132 221
f 345 361 441
f 116 221 132
f 457 421 400
f 237 175 199
f 438 400 421
f 218 199 175
f 457 364 421
f 237 199 135
f 361 421 364
f 132 135 199
f 362 402 289
f 133 59 178
f 436 289 402
f 216 178 59
f 354 266 384
f 125 157 36
f 373 384 266
f 144 36 157
f 256 250 340
f 26 111 8
f 391 340 250
f 164 8 111
f 262 256 449
f 32 229 26
f 340 449 256
f 111 26 229
f 15 318 14
f 15 14 88
f 313 14 318
f 83 88 14
f 318 403 313
f 88 83 179
f 312 313 403
f 82 179 83
f 403 319 312
f 179 82 89
f 311 312 319
f 81 89 82
f 319 325 311
f 89 81 96
f 416 311 325
f 192 96 81
f 357 469 470
f 357 470 390
f 390 470 471
f 390 471 252
f 252 471 472
f 252 472 285
f 285 472 473
f 285 473 333
f 333 473 474
f 333 474 298
f 298 474 475
f 298 475 339
f 339 475 476
f 339 476 11
f 11 476 477
f 11 477 110
f 110 477 478
f 110 478 68
f 68 478 479
f 68 479 104
f 104 479 480
f 104 480 55
f 55 480 481
f 55 481 22
f 22 481 482
f 22 482 163
f 163 482 483
f 163 483 128
f 128 483 484
f 128 484 235
f 235 484 485
f 235 485 94
f 94 485 486
f 94 486 133
f 133 486 487
f 133 487 59
f 59 487 488
f 59 488 173
f 173 488 489
f 173 489 137
f 137 489 490
f 137 490 151
f 151 490 491
f 151 491 150
f 150 491 492
f 150 492 177
f 177 492 493
f 177 493 149
f 149 493 494
f 149 494 153
f 153 494 495
f 153 495 378
f 378 495 496
f 378 496 401
f 401 496 497
f 401 497 379
f 379 497 498
f 379 498 380
f 380 498 499
f 380 499 366
f 366 499 500
f 366 500 398
f 398 500 501
f 398 501 289
f 289 501 502
f 289 502 362
f 362 502 503
f 362 503 324
f 324 503 504
f 324 504 455
f 455 504 469
f 455 469 357
f 469 505 506
f 469 506 470
f 470 506 507
f 470 507 471
f 471 507 508
f 471 508 472
f 472 508 509
f 472 509 473
f 473 509 510
f 473 510 474
f 474 510 511
f 474 511 475
f 475 511 512
f 475 512 476
f 476 512 513
f 476 513 477
f 477 513 514
f 477 514 478
f 478 514 515
f 478 515 479
f 479 515 516
f 479 516 480
f 480 516 517
f 480 517 481
f 481 517 518
f 481 518 482
f 482 518 519
f 482 519 483
f 483 519 520
f 483 520 484
f 484 520 521
f 484 521 485
f 485 521 522
f 485 522 486
f 486 522 523
f 486 523 487
f 487 523 524
f 487 524 488
f 488 524 525
f 488 525 489
f 489 525 526
f 489 526 490
f 490 526 527
f 490 527 491
f 491 527 528
f 491 528 492
f 492 528 529
f 492 529 493
f 493 529 530
f 493 530 494
f 494 530 531
f 494 531 495
f 495 531 532
f 495 532 496
f 496 532 533
f 496 533 497
f 497 533 534
f 497 534 498
f 498 534 535
f 498 535 499
f 499 535 536
f 499 536 500
f 500 536 537
f 500 537 501
f 501 537 538
f 501 538 502
f 502 538 539
f 502 539 503
f 503 539 540
f 503 540 504
f 504 540 505
f 504 505 469
f 505 541 542
f 505 542 506
f 506 542 543
f 506 543 507
f 507 543 544
f 507 544 508
f 508 544 545
f 508 545 509
f 509 545 546
f 509 546 510
f 510 546 547
f 510 547 511
f 511 547 548
f 511 548 512
f 512 548 549
f 512 549 513
f 513 549 550
f 513 550 514
f 514 550 551
f 514 551 515
f 515 551 552
f 515 552 516
f 516 552 553
f 516 553 517
f 517 553 554
f 517 554 518
f 518 554 555
f 518 555 519
f 519 555 556
f 519 556 520
f 520 556 557
f 520 557 521
f 521 557 558
f 521 558 522
f 522 558 559
f 522 559 523
f 523 559 560
f 523 560 524
f 524 560 561
f 524 561 525
f 525 561 562
f 525 562 526
f 526 562 563
f 526 563 527
f 527 563 564
f 527 564 528
f 528 564 565
f 528 565 529
f 529 565 566
f 529 566 530
f 530 566 567
f 530 567 531
f 531 567 568
f 531 568 532
f 532 568 569
f 532 569 533
f 533 569 570
f 533 570 534
f 534 570 571
f 534 571 535
f 535 571 572
f 535 572 536
f 536 572 573
f 536 573 537
f 537 573 574
f 537 574 538
f 538 574 575
f 538 575 539
f 539 575 576
f 539 576 540
f 540 576 541
f 540 541 505
f 541 577 578
f 541 578 542
f 542 578 579
f 542 579 543
f 543 579 580
f 543 580 544
f 544 580 581
f 544 581 545
f 545 581 582
f 545 582 546
f 546 582 583
f 546 583 547
f 547 583 584
f 547 584 548
f 548 584 585
f 548 585 549
f 549 585 586
f 549 586 550
f 550 586 587
f 550 587 551
f 551 587 588
f 551 588 552
f 552 588 589
f 552 589 553
f 553 589 590
f 553 590 554
f 554 590 591
f 554 591 555
f 555 591 592
f 555 592 556
f 556 592 593
f 556 593 557
f 557 593 594
f 557 594 558
f 558 594 595
f 558 595 559
f 559 595 596
f 559 596 560
f 560 596 597
f 560 597 561
f 561 597 598
f 561 598 562
f 562 598 599
f 562 599 563
f 563 599 600
f 563 600 564
f 564 600 601
f 564 601 565
f 565 601 602
f 565 602 566
f 566 602 603
f 566 603 567
f 567 603 604
f 567 604 568
f 568 604 605
f 568 605 569
f 569 605 606
f 569 606 570
f 570 606 607
f 570 607 571
f 571 607 608
f 571 608 572
f 572 608 609
f 572 609 573
f 573 609 610
f 573 610 574
f 574 610 611
f 574 611 575
f 575 611 612
f 575 612 576
f 576 612 577
f 576 577 541
f 577 613 614
f 577 614 578
f 578 614 615
f 578 615 579
f 579 615 616
f 579 616 580
f 580 616 617
f 580 617 581
f 581 617 618
f 581 618 582
f 582 618 619
f 582 619 583
f 583 619 620
f 583 620 584
f 584 620 621
f 584 621 585
f 585 621 622
f 585 622 586
f 586 622 623
f 586 623 587
f 587 623 624
f 587 624 588
f 588 624 625
f 588 625 589
f 589 625 626
f 589 626 590
f 590 626 627
f 590 627 591
f 591 627 628
f 591 628 592
f 592 628 629
f 592 629 593
f 593 629 630
f 593 630 594
f 594 630 631
f 594 631 595
f 595 631 632
f 595 632 596
f 596 632 633
f 596 633 597
f 597 633 634
f 597 634 598
f 598 634 635
f 598 635 599
f 599 635 636
f 599 636 600
f 600 636 637
f 600 637 601
f 601 637 638
f 601 638 602
f 602 638 639
f 602 639 603
f 603 639 640
f 603 640 604
f 604 640 641
f 604 641 605
f 605 641 642
f 605 642 606
f 606 642 643
f 606 643 607
f 607 643 644
f 607 644 608
f 608 644 645
f 608 645 609
f 609 645 646
f 609 646 610
f 610 646 647
f 610 647 611
f 611 647 648
f 611 648 612
f 612 648 613
f 612 613 577
f 613 649 650
f 613 650 614
f 614 650 651
f 614 651 615
f 615 651 652
f 615 652 616
f 616 652 653
f 616 653 617
f 617 653 654
f 617 654 618
f 618 654 655
f 618 655 619
f 619 655 656
f 619 656 620
f 620 656 657
f 620 657 621
f 621 657 658
f 621 658 622
f 622 658 659
f 622 659 623
f 623 659 660
f 623 660 624
f 624 660 661
f 624 661 625
f 625 661 662
f 625 662 626
f 626 662 663
f 626 663 627
f 627 663 664
f 627 664 628
f 628 664 665
f 628 665 629
f 629 665 666
f 629 666 630
f 630 666 667
f 630 667 631
f 631 667 668
f 631 668 632
f 632 668 669
f 632 669 633
f 633 669 670
f 633 670 634
f 634 670 671
f 634 671 635
f 635 671 672
f 635 672 636
f 636 672 673
f 636 673 637
f 637 673 674
f 637 674 638
f 638 674 675
f 638 675 639
f 639 675 676
f 639 676 640
f 640 676 677
f 640 677 641
f 641 677 678
f 641 678 642
f 642 678 679
f 642 679 643
f 643 679 680
f 643 680 644
f 644 680 681
f 644 681 645
f 645 681 682
f 645 682 646
f 646 682 683
f 646 683 647
f 647 683 684
f 647 684 648
f 648 684 649
f 648 649 613
f 689 685 686
f 689 686 687
f 689 687 688
f 689 688 685
f 694 691 690
f 694 692 691
f 694 693 692
f 694 690 693
f 695 696 710
f 695 710 709
f 696 697 711
f 696 711 710
f 697 698 712
f 697 712 711
f 698 699 713
f 698 713 712
f 699 700 714
f 699 714 713
f 700 701 715
f 700 715 714
f 701 702 716
f 701 716 715
f 702 703 717
f 702 717 716
f 703 704 718
f 703 718 717
f 704 705 719
f 704 719 718
f 705 706 720
f 705 720 719
f 706 707 721
f 706 721 720
f 707 708 722
f 707 722 721
f 708 695 709
f 708 709 722
f 709 710 724
f 709 724 723
f 710 711 725
f 710 725 724
f 711 712 726
f 711 726 725
f 712 713 727
f 712 727 726
f 713 714 728
f 713 728 727
f 714 715 729
f 714 729 728
f 715 716 730
f 715 730 729
f 716 717 731
f 716 731 730
f 717 718 732
f 717 732 731
f 718 719 733
f 718 733 732
f 719 720 734
f 719 734 733
f 720 721 735
f 720 735 734
f 721 722 736
f 721 736 735
f 722 709 723
f 722 723 736
f 723 724 738
f 723 738 737
f 724 725 739
f 724 739 738
f 725 726 740
f 725 740 739
f 726 727 741
f 726 741 740
f 727 728 742
f 727 742 741
f 728 729 743
f 728 743 742
f 729 730 744
f 729 744 743
f 730 731 745
f 730 745 744
f 731 732 746
f 731 746 745
f 732 733 747
f 732 747 746
f 733 734 748
f 733 748 747
f 734 735 749
f 734 749 748
f 735 736 750
f 735 750 749
f 736 723 737
f 736 737 750
f 737 738 752
f 737 752 751
f 738 739 753
f 738 753 752
f 739 740 754
f 739 754 753
f 740 741 755
f 740 755 754
f 741 742 756
f 741 756 755
f 742 743 757
f 742 757 756
f 743 744 758
f 743 758 757
f 744 745 759
f 744 759 758
f 745 746 760
f 745 760 759
f 746 747 761
f 746 761 760
f 747 748 762
f 747 762 761
f 748 749 763
f 748 763 762
f 749 750 764
f 749 764 763
f 750 737 751
f 750 751 764
f 751 752 766
f 751 766 765
f 752 753 767
f 752 767 766
f 753 754 768
f 753 768 767
f 754 755 769
f 754 769 768
f 755 756 770
f 755 770 769
f 756 757 771
f 756 771 770
f 757 758 772
f 757 772 771
f 758 759 773
f 758 773 772
f 759 760 774
f 759 774 773
f 760 761 775
f 760 775 774
f 761 762 776
f 761 776 775
f 762 763 777
f 762 777 776
f 763 764 778
f 763 778 777
f 764 751 765
f 764 765 778
f 765 766 780
f 765 780 779
f 766 767 781
f 766 781 780
f 767 768 782
f 767 782 781
f 768 769 783
f 768 783 782
f 769 770 784
f 769 784 783
f 770 771 785
f 770 785 784
f 771 772 786
f 771 786 785
f 772 773 787
f 772 787 786
f 773 774 788
f 773 788 787
f 774 775 789
f 774 789 788
f 775 776 790
f 775 790 789
f 776 777 791
f 776 791 790
f 777 778 792
f 777 792 791
f 778 765 779
f 778 779 792
f 779 780 794
f 779 794 793
f 780 781 795
f 780 795 794
f 781 782 796
f 781 796 795
f 782 783 797
f 782 797 796
f 783 784 798
f 783 798 797
f 784 785 799
f 784 799 798
f 785 786 800
f 785 800 799
f 786 787 801
f 786 801 800
f 787 788 802
f 787 802 801
f 788 789 803
f 788 803 802
f 789 790 804
f 789 804 803
f 790 791 805
f 790 805 804
f 791 792 806
f 791 806 805
f 792 779 793
f 792 793 806
f 793 794 808
f 793 808 807
f 794 795 809
f 794 809 808
f 795 796 810
f 795 810 809
f 796 797 811
f 796 811 810
f 797 798 812
f 797 812 811
f 798 799 813
f 798 813 812
f 799 800 814
f 799 814 813
f 800 801 815
f 800 815 814
f 801 802 816
f 801 816 815
f 802 803 817
f 802 817 816
f 803 804 818
f 803 818 817
f 804 805 819
f 804 819 818
f 805 806 820
f 805 820 819
f 806 793 807
f 806 807 820
